<svg width="96" height="96" viewBox="0 0 96 96" fill="none" xmlns="http://www.w3.org/2000/svg">
  <defs>
    <linearGradient id="ofg" x1="0" y1="0" x2="96" y2="96" gradientUnits="userSpaceOnUse">
      <stop offset="0" stop-color="#4F7CFF"/>
      <stop offset="1" stop-color="#2B55E8"/>
    </linearGradient>
  </defs>
  <rect width="96" height="96" rx="24" fill="url(#ofg)"/>
  <path d="M30 58c0-10.5 6.8-17.5 16-17.5 9.4 0 16 6.8 16 17.5 0 10.6-6.6 17.5-16 17.5-9.2 0-16-7-16-17.5Zm10.3 0c0 5.6 2.7 9.4 5.7 9.4 3.1 0 5.7-3.8 5.7-9.4 0-5.6-2.6-9.4-5.7-9.4-3 0-5.7 3.8-5.7 9.4Z" fill="white"/>
  <path d="M66 36h-6.8c-7.7 0-12.2 4.6-12.2 12.7V68h9.6V51.5H66V44h-9.4v-2.7c0-2.7 1.4-4.3 4.2-4.3H66V36Z" fill="white"/>
</svg>
