<svg width="800" height="400" viewBox="0 0 800 400" fill="none" xmlns="http://www.w3.org/2000/svg">
  <defs>
    <linearGradient id="bg2" x1="0" y1="0" x2="800" y2="400" gradientUnits="userSpaceOnUse">
      <stop offset="0" stop-color="#0F1522"/>
      <stop offset="1" stop-color="#111A2B"/>
    </linearGradient>
  </defs>
  <rect width="800" height="400" rx="24" fill="url(#bg2)"/>
  <rect x="24" y="24" width="220" height="70" rx="14" fill="#121826" stroke="#1E2A3B"/>
  <rect x="260" y="24" width="220" height="70" rx="14" fill="#121826" stroke="#1E2A3B"/>
  <rect x="496" y="24" width="280" height="70" rx="14" fill="#121826" stroke="#1E2A3B"/>
  <rect x="40" y="48" width="110" height="10" rx="5" fill="#4F7CFF"/>
  <rect x="276" y="48" width="90" height="10" rx="5" fill="#19C3A6"/>
  <rect x="512" y="48" width="140" height="10" rx="5" fill="#9B7BFF"/>
  <rect x="24" y="114" width="752" height="262" rx="18" fill="#111A2B" stroke="#1E2A3B"/>
  <g stroke="#2A3A52" stroke-width="2">
    <path d="M60 330C120 280 180 310 240 260C300 210 360 250 420 210C480 170 540 220 600 190C660 160 720 210 760 180" />
  </g>
  <circle cx="240" cy="260" r="5" fill="#4F7CFF"/>
  <circle cx="420" cy="210" r="5" fill="#19C3A6"/>
  <circle cx="600" cy="190" r="5" fill="#9B7BFF"/>
</svg>
