<svg width="800" height="400" viewBox="0 0 800 400" fill="none" xmlns="http://www.w3.org/2000/svg">
  <defs>
    <linearGradient id="bg" x1="0" y1="0" x2="800" y2="400" gradientUnits="userSpaceOnUse">
      <stop offset="0" stop-color="#0F1522"/>
      <stop offset="1" stop-color="#111A2B"/>
    </linearGradient>
    <linearGradient id="accent" x1="0" y1="0" x2="800" y2="0" gradientUnits="userSpaceOnUse">
      <stop offset="0" stop-color="#4F7CFF"/>
      <stop offset="1" stop-color="#2B55E8"/>
    </linearGradient>
  </defs>
  <rect width="800" height="400" rx="24" fill="url(#bg)"/>
  <rect x="24" y="24" width="240" height="90" rx="14" fill="#121826" stroke="#1E2A3B"/>
  <rect x="276" y="24" width="240" height="90" rx="14" fill="#121826" stroke="#1E2A3B"/>
  <rect x="528" y="24" width="248" height="90" rx="14" fill="#121826" stroke="#1E2A3B"/>
  <rect x="40" y="44" width="120" height="10" rx="5" fill="#2B55E8"/>
  <rect x="292" y="44" width="90" height="10" rx="5" fill="#19C3A6"/>
  <rect x="544" y="44" width="110" height="10" rx="5" fill="#9B7BFF"/>
  <rect x="24" y="138" width="752" height="238" rx="18" fill="#111A2B" stroke="#1E2A3B"/>
  <rect x="60" y="320" width="60" height="40" rx="8" fill="#4F7CFF"/>
  <rect x="150" y="270" width="60" height="90" rx="8" fill="#19C3A6"/>
  <rect x="240" y="290" width="60" height="70" rx="8" fill="#F6C453"/>
  <rect x="330" y="230" width="60" height="130" rx="8" fill="#9B7BFF"/>
  <rect x="420" y="305" width="60" height="55" rx="8" fill="#F26B6B"/>
  <rect x="510" y="260" width="60" height="100" rx="8" fill="#5AD1FF"/>
  <rect x="600" y="300" width="60" height="60" rx="8" fill="#7EE7B0"/>
</svg>
